<?xml version="1.0" encoding="UTF-8"?>
<!DOCTYPE svg PUBLIC "-//W3C//DTD SVG 1.1//EN" "http://www.w3.org/Graphics/SVG/1.1/DTD/svg11.dtd">
<!-- Creator: CorelDRAW 2019 (64-Bit) -->
<svg xmlns="http://www.w3.org/2000/svg" xml:space="preserve" width="5.6cm" height="6.5cm" version="1.1" style="shape-rendering:geometricPrecision; text-rendering:geometricPrecision; image-rendering:optimizeQuality; fill-rule:evenodd; clip-rule:evenodd"
viewBox="0 0 5600 6500"
 xmlns:xlink="http://www.w3.org/1999/xlink">
 <defs>
  <style type="text/css">
   <![CDATA[
    .str0 {stroke:#334E8B;stroke-width:7.62;stroke-miterlimit:2.61313}
    .fil4 {fill:#334E8B}
    .fil5 {fill:#334E8B}
    .fil1 {fill:#D9D9D9}
    .fil3 {fill:#FEFEFE}
    .fil0 {fill:white}
    .fil2 {fill:#373435;fill-rule:nonzero}
   ]]>
  </style>
 </defs>
 <g id="Layer_x0020_1">
  <metadata id="CorelCorpID_0Corel-Layer"/>
  <g id="_1967869199408">
   <path class="fil0" d="M33.54 5570.79c32.43,8.47 217.89,2.35 265.83,2.35 788.95,0 1577.89,0 2366.84,0 361.02,0 585.66,-17.05 931.45,-118.08 67.66,-19.77 131.92,-42.51 195.23,-67.57 60.79,-24.06 127.82,-50.1 183.98,-78.71 139.21,-70.92 207.02,-104.93 337.79,-190.56 67.43,-44.16 267.66,-190.97 334.32,-258.23 13.94,-14.06 20.57,-18.95 33.6,-30.48 11.88,-10.51 22.2,-22.74 33.76,-33.43l159.71 -166.92c405.24,-470.91 649.7,-1045.83 680.18,-1685.45 2.07,-43.48 3.09,-86.98 3.29,-130.51 0.2,-44.83 -4.32,-87.97 -4.4,-131.31 8.55,-22.15 -9.68,-165.3 -13.1,-195.1 -14.21,-123.79 -37.53,-244.32 -66.99,-362.18 -53.7,-214.84 -134.59,-421.75 -239.15,-615.98l-118.27 -202.01c-14.48,-21.71 -27.39,-43.01 -42.44,-63.26 -54.7,-73.65 -123.87,-175.78 -187.05,-242.12 -35.47,-37.24 -61.97,-71.58 -102.48,-112.1 -34,-34 -72.02,-76.85 -108.57,-106.01l-84.15 -75.99c-71.48,-55.86 -128.81,-108.54 -210.63,-164.1 -11.7,-7.94 -20.91,-13.54 -32.33,-22.11 -65.39,-49.12 -232.27,-143.11 -302.29,-178.12 -49.26,-24.64 -94.63,-47.1 -145.28,-69.31 -243.49,-106.76 -540.54,-189.14 -804.1,-214.38 -17.03,-1.63 -32.23,-2.08 -50.06,-4.39 -28.59,-3.71 -67.72,-4.91 -97.44,-8.25 -16.03,-1.8 -34.52,0.43 -50.79,-0.45 -84.05,-4.54 -124.11,-4.54 -208.15,0 -17.26,0.93 -37.05,-1.45 -54,0.45 -29.71,3.34 -68.88,4.54 -97.46,8.23 -34.3,4.42 -66.42,5.71 -98.56,10.34 -198.45,28.57 -332.64,56.14 -523.86,119.89 -87.58,29.21 -219.27,80.69 -306.58,122.59 -24.78,11.9 -45.78,22.96 -70.42,35.28 -161.77,80.88 -314.74,181.43 -456.92,292.51l-226.6 199.38c-40.68,40.68 -80.44,79.44 -117.04,123.16l-49.55 56.14c-5.93,6.65 -8.19,8.3 -13.57,15.26 -38.98,50.45 -75.83,91.22 -117.14,148.68 -56.26,78.24 -162.28,239.64 -206.36,328.51 -18.65,37.6 -54.47,103.66 -71.36,143.22 -11.3,26.49 -21.38,49.1 -33.21,75.69 -26.12,58.72 -38.09,97.56 -60.09,154.49 -54.5,140.95 -106.94,360.68 -129.04,511.51 -9.34,63.8 -15.84,127 -22.87,191.71 -3.6,33.06 -2.95,68.44 -6.41,99.29l-0.47 2840.38c0,8.63 -0.03,17.22 -0.12,25.85 -0.14,14.65 -1.79,20.53 3.32,22.2z"/>
   <path class="fil1" d="M33.54 5570.79l0 51.23c925.6,0 1851.2,0 2776.79,0 47.82,0 86.23,-3.04 131.43,-3.09 42.14,-0.05 208.58,-18.59 242.34,-23.49 300.3,-43.57 464.51,-98.18 722.04,-203.56l46.53 -20.73c15.72,-7.33 31.36,-14.01 45.9,-21.35 253.15,-127.81 314.72,-173.24 526.65,-331.69l210.78 -186.37c24.9,-25.04 95.98,-96.39 112.64,-117.95l48.05 -54.45c9.28,-11.95 19.71,-22.57 29.68,-34.37 5.18,-6.12 9.44,-11.78 14.21,-17.81 6.13,-7.73 10.14,-11.91 16.06,-19.18 118.06,-144.95 176.36,-243.23 265.52,-397.45 31.83,-55.07 83.48,-159.03 109.63,-220.25 108.01,-252.8 182.03,-499.35 213.7,-782.36 4.3,-38.38 8.16,-80.62 12.34,-118.97l6.92 -127.6c-0.17,-29.4 1.8,-176.16 -1.39,-197.26 -1.71,-11.26 -2.13,-17.48 -1.84,-30.16 0.94,-40.3 0.73,-27.31 -6.4,-32.04 0.08,43.34 4.6,86.48 4.4,131.31 -0.2,43.53 -1.22,87.03 -3.29,130.51 -30.48,639.62 -274.94,1214.54 -680.18,1685.45l-159.71 166.92c-11.56,10.69 -21.88,22.92 -33.76,33.43 -13.03,11.53 -19.66,16.42 -33.6,30.48 -66.66,67.26 -266.89,214.07 -334.32,258.23 -130.77,85.63 -198.58,119.64 -337.79,190.56 -56.16,28.61 -123.19,54.65 -183.98,78.71 -63.31,25.06 -127.57,47.8 -195.23,67.57 -345.79,101.03 -570.43,118.08 -931.45,118.08 -788.95,0 -1577.89,0 -2366.84,0 -47.94,0 -233.4,6.12 -265.83,-2.35z"/>
   <path class="fil0" d="M1661.31 3733.89l319.51 0c-4.89,-214.95 50.69,-434.26 137.07,-597.87 63.01,-119.37 78.06,-128.06 150.16,-218.15 29.05,-36.3 107.38,-103.97 146.22,-132.39l55.35 -39.84c-45.16,5.62 -124.93,41.24 -164.42,58.84 -244.2,108.86 -444.56,327.31 -547.81,573.21 -41.74,99.41 -84.09,236.93 -96.08,356.2z"/>
   <polygon class="fil2" points="1840.36,5861.19 1740.45,5861.19 1740.45,6457.25 1682.88,6457.25 1682.88,5861.19 1582.13,5861.19 1582.13,5810.39 1840.36,5810.39 "/>
   <path id="1" class="fil2" d="M1959.6 5967.03l-55.88 0 0 -70.28 55.88 0 0 70.28zm-0.84 490.22l-54.19 0 0 -402.17 54.19 0 0 402.17z"/>
   <path id="2" class="fil2" d="M2277.25 6410.26c-0.28,31.19 -16.23,46.85 -47.98,46.99l-129.26 0c-31.75,0 -47.69,-15.95 -47.98,-47.98l0 -306.21c0.29,-32.03 16.23,-47.98 47.98,-47.98l129.26 0c31.75,0 47.84,15.95 47.98,47.98l0 143.37 -18.63 19.47 -153.25 0 0 145.63 118.54 0 0 -74.51 53.34 0 0 73.24zm-53.34 -188.38l0 -121.08 -118.54 0 0 121.08 118.54 0z"/>
   <path id="3" class="fil2" d="M2598.98 6457.25l-55.03 0 0 -353.06 -121.07 3.67 0 349.39 -55.04 0 0 -402.17 55.04 0 0 11.29c21.59,-2.82 43.32,-5.64 65.33,-8.75 26.25,-3.38 47.98,-5.08 65.05,-5.08 30.48,0 45.72,15.95 45.72,47.98l0 356.73z"/>
   <path id="4" class="fil2" d="M2916.48 6457.25l-54.18 0 0 -11.01c-58.56,9.03 -91.02,13.55 -97.37,13.55 -23.57,0 -42.62,-8.04 -57.01,-23.99 -14.53,-15.94 -21.73,-35.98 -21.73,-59.83l0 -233.68c0,-24.98 8.18,-45.86 24.55,-62.37 16.51,-16.51 37.12,-24.84 61.81,-24.84l89.75 0 0 -244.69 54.18 0 0 646.86zm-54.18 -49.95l0 -303.96 -76.34 0c-30.34,0 -45.58,15.52 -45.58,46.71l0 215.2c0,30.9 15.24,46.28 45.58,46.28 7.19,0 32.59,-1.41 76.34,-4.23z"/>
   <path id="5" class="fil2" d="M3234.83 6457.25l-54.19 0 0 -11.01c-21.73,2.97 -43.46,5.93 -65.33,8.61 -26.96,3.25 -48.69,4.94 -65.06,4.94 -29.91,0 -44.87,-15.95 -44.87,-47.98l0 -141.96c0.28,-31.75 14.96,-47.69 43.89,-47.97l132.22 0 0 -121.08 -118.54 0 0 67.74 -53.34 0 0 -66.89c0.29,-30.9 14.82,-46.43 43.75,-46.57l133.49 0c31.89,0.14 47.84,15.81 47.98,47.13l0 355.04zm-53.34 -49.95l0 -142.24 -122.77 0 0 144.78 122.77 -2.54z"/>
   <path id="6" class="fil2" d="M3541.32 6409.27c0,31.75 -15.94,47.7 -47.98,47.98l-123.33 0c-32.03,-0.28 -47.98,-16.23 -47.98,-47.98l0 -89.18 54.19 0 0 89.75 110.91 0 0 -80.3 -143.65 -117.82c-13.69,-11.01 -20.6,-25.26 -20.6,-42.9l0 -65.76c0,-31.75 15.95,-47.7 47.98,-47.98l121.64 0c32.03,0.28 47.97,16.23 47.97,47.98l0 78.18 -53.34 0 0 -78.74 -110.91 0 0 70.41 144.92 117.69c13.41,10.72 20.18,25.4 20.18,43.88l0 74.79z"/>
   <polygon class="fil3" points="2105.05,2204.66 3274.66,2214.75 3160.1,1631.22 2236.05,1638.16 "/>
   <g>
    <path class="fil4" d="M1494.84 1549.38c5.62,37.59 208.52,779.46 220.5,825.68l165.64 618.08c29.03,105.77 34.88,70.24 -28.28,186.95 -89.8,165.92 -181.44,350.13 -271.02,512.76 -19.58,35.54 -31.01,52.89 -30.05,101.88 1.35,69.53 10.66,138.39 94.64,168.75 36.3,13.13 79.16,9.46 120.25,9.46l2095.78 0c67.74,0 192.84,10.35 244.76,-16.27 92.24,-47.31 113.03,-180.98 16.42,-250.42 -29.78,-21.41 -62.74,-25.98 -105.81,-25.88l-1570.97 0.01c-174.69,0 -351.51,-2.67 -526.05,0.27 12.16,-38.83 53.7,-100.19 72.11,-139.64l107.48 -206.26c5.99,-11.49 12.91,-20.13 19.51,-32.85 5.41,-10.42 12.95,-25.69 18.73,-36.29 16.37,-30.01 2.33,-22.89 73.53,-29.19 33.54,-2.96 66.74,-5.79 98.7,-8.59l1550.84 -134.78c59.64,-5.33 133.85,-4.14 178.06,-32.61 48.8,-31.41 57.38,-65.83 72.38,-138.17l140.37 -705.09c13.18,-67.53 29.89,-113.1 -11.5,-171.71 -33.59,-47.57 -72.14,-56.6 -144.53,-65.95 -124.4,-16.08 -250.32,-28.95 -375.8,-45.24 -62.13,-8.07 -127.07,-13.68 -188.11,-22.55 -15.72,-2.29 -28.01,-6.9 -43.06,-8.15 -16.8,-1.4 -31.79,-0.84 -48.72,-2.99 -32.81,-4.18 -64.02,-7.38 -96.41,-11.79 -247.42,-33.68 -501.16,-57.71 -751.03,-90.51 -249.65,-32.78 -505.38,-60.46 -755.04,-91.34 -4.98,-30.35 -18.95,-74 -27.19,-104.24l-55.91 -206.54c-14.59,-41.39 -30.35,-50.84 -55.79,-75.36 -26.02,-25.08 -32.73,-41.32 -75.34,-55.9 -36.99,-12.67 -82.68,-8.31 -123.26,-8.31 -87.47,0 -174.94,0 -262.4,0 -102.91,0 -155.12,-12.63 -214.02,48.8 -50.99,53.19 -47.34,132.99 -4.75,191.12 14.57,19.88 45.47,41.15 82.13,49.19 34.66,7.6 324.39,0.27 393.21,3.67z"/>
    <path class="fil0" d="M1537.71 1489.27c10.93,27.34 19.6,70.08 28,99.84 64.78,229.61 127.05,476.47 189.61,707.86 18.25,67.5 36.05,134.02 54.2,201.4l135.05 503.61c11.28,41.9 28.12,78.93 15.63,102.57l-265.63 500.81c-16.39,31.51 -82.43,143.57 -83.72,175.41 -1.89,46.27 -2.3,77.98 22.73,105.48 23.57,25.91 56.2,27.27 101.87,27.25 85.16,-0.06 170.33,0.08 255.5,-0.01l1795.39 0.01c82.77,0 173.94,3.64 255.65,-0.05 75.69,-3.42 114.44,-91.34 61.79,-146.07 -28.26,-29.37 -51,-28.63 -99.92,-28.61l-1156.65 0.01c-170.28,-0.12 -340.74,-0.04 -511,0 -168.97,0.04 -345.55,4.88 -513.58,-0.14 5.4,-20.6 160.73,-303.39 181.18,-342.35 11.99,-22.85 23.92,-46.26 37.15,-69.7 10.47,-18.56 63.81,-133.22 74.27,-139.19 11.48,-6.56 1008.62,-87.18 1167.42,-103.2 189.76,-19.14 393.53,-31.91 585.35,-50.79 68.69,-6.76 134.92,0.86 164.99,-48.54 18.05,-29.65 64.62,-293.15 75.86,-348.81 23.67,-117.15 48.11,-235.93 70.07,-351.05 7.62,-39.96 36.14,-145.41 25.93,-179.53 -19.09,-63.8 -74.41,-61.77 -142.52,-70.47 -87.16,-11.13 -503.69,-56.23 -565.81,-70.34l-192.86 -21.35c-124.4,-17.16 -250.57,-29.69 -376.5,-45.6l-756.68 -91.19c-64.12,-7.88 -340.82,-37.66 -378.27,-46.75 -15.2,-52.87 -87.3,-339.45 -100.99,-361.83 -7.38,-12.06 -16.39,-19.74 -27.32,-27.82 -13.04,-9.65 -18.7,-20.99 -28.4,-30.5 -25.91,-25.41 -50.38,-23.92 -93.4,-23.9 -78.26,0.05 -156.52,0 -234.78,0 -50.92,0 -184.8,-9.37 -219.33,11.99 -55.84,34.55 -58.38,111.57 -2.98,148.21 35.5,23.48 165.65,13.76 218.86,13.76 75.79,0 158.92,3.23 233.84,-0.42z"/>
    <path class="fil5" d="M3579.27 4007.52c-170.91,18.11 -288.21,168.47 -269.09,328.52 18.65,156.08 151.53,283.01 330.29,265.48 66.17,-6.48 108.05,-31.31 155.78,-64.96l38.51 -37.3c41.66,-50.37 80.88,-134.01 69.68,-226.04 -5.13,-42.13 -17.51,-79.16 -34.94,-112.78 -13.91,-26.85 -46.65,-66.36 -66.81,-81.73 -68.5,-52.24 -130.3,-81.05 -223.42,-71.19z"/>
    <path class="fil5" d="M1966.06 4007.42c-78.61,9.59 -152.02,36.38 -201.01,96.57 -93.83,115.3 -106,255.11 -16.23,381.79 30.94,43.66 78.39,74.72 128.31,95.82 192.39,81.32 427.44,-75.2 407.96,-300.17 -5.32,-61.38 -26.8,-114.21 -61.82,-159.69 -52.17,-67.76 -153.44,-126.99 -257.21,-114.32z"/>
    <path class="fil5" d="M2664.22 2421.56c224.93,2.23 446.5,6.74 670.02,12.73l41.86 -306.53 -806.55 -97.42c9.09,61.92 49.74,218.15 67.67,296.31 3.54,15.43 7.21,31.86 10.75,47.63 4.77,21.3 5.78,40.73 16.25,47.28z"/>
    <polygon class="fil5" points="1965.56,2406.88 2478.93,2417.7 2384.58,2007.54 1841.82,1942.62 "/>
    <path class="fil5" d="M2129.05 3008.79l473.53 -40.52c0.25,-1.34 0.5,-3.53 0.54,-3.06 0.03,0.46 0.44,-1.98 0.46,-2.54 0.52,-12.55 -4.77,-26.76 -7.49,-38.73l-33.02 -142.98c-13.24,-57.58 -35.23,-132.66 -42.62,-188.01l-507.33 -9.82c20.3,67.93 37.16,141.85 56.5,211.35 9,32.34 51.26,200.01 59.43,214.31z"/>
    <path class="fil5" d="M2781.63 2952.71c151.5,-11.76 307.68,-28.88 458.48,-39.91 3.74,-0.27 11.81,-0.66 14.93,-1.16l14.39 -4.24 41.12 -299.16 -611.12 -11.76 82.2 356.23z"/>
    <path class="fil0" d="M1963.29 4065.92c-123.92,12.27 -229.54,123.28 -214.64,264.15 13.13,124.14 127.15,229.95 265.15,212.95 122.34,-15.08 225.61,-122.9 212.19,-264.6 -11.27,-119.03 -123,-226.34 -262.7,-212.5z"/>
    <path class="fil0" d="M3579.89 4066.38c-122.32,16.08 -227.61,124 -210.81,266.59 14.37,121.97 127.85,228.5 267.82,209.6 123.12,-16.62 224.76,-125.49 208.49,-267.95 -13.56,-118.64 -128.11,-226.29 -265.5,-208.24z"/>
    <path class="fil0 str0" d="M2705.99 2362.28l286.23 6.45c44.71,-1.21 98.24,2.83 141.43,4.06 31.45,0.89 122.64,4.34 148.6,-0.16l27.23 -192.72 -663.58 -80.82 60.09 263.19z"/>
    <path class="fil0" d="M2013.44 2349.71l390.34 7.18 -66.47 -292.03 -22.29 -6.08c-8.44,-0.99 -17.02,-1.7 -25.49,-2.67 -17.25,-1.98 -35.34,-4.6 -51.17,-6.72l-316.89 -37.39c5.8,32.82 84.97,326.68 91.97,337.71z"/>
    <path class="fil5" d="M3510.27 2437.69l459.7 8.96 47.15 -241.36 -465.48 -56.36c-9.67,20.32 -37.62,248.89 -41.37,288.76z"/>
    <path class="fil5" d="M3590.16 4114.65c-97.87,9.77 -185.14,94.12 -173.19,208.12 10.65,101.62 96.92,182.06 210.1,171.9 97.29,-8.74 182.41,-97.66 170.35,-209.82 -10.55,-98.05 -97.07,-181.19 -207.26,-170.2z"/>
    <path class="fil5" d="M1967.6 4114.72c-99.69,11.19 -183.33,98.45 -170.64,211.79 11.35,101.38 99.47,177.46 213.77,167.51 96.35,-8.39 178.32,-102.11 165.55,-212.16 -11.23,-96.88 -98.59,-179.49 -208.68,-167.14z"/>
    <polygon class="fil5" points="3447.7,2893.88 3886.23,2856.65 3934.2,2620.4 3485.45,2611.77 "/>
    <path class="fil0" d="M2173.94 2945.95l357.54 -30.61c1.17,-17.43 -41.7,-187.14 -51.31,-231.28 -1.36,-6.29 -4.92,-29.01 -11.01,-31.64l-378.58 -9.1c10.25,51.08 44.23,166.73 60.66,227.99l22.7 74.64z"/>
    <path class="fil0" d="M2827.59 2889.28c94.55,-4.41 237.13,-20.63 340.66,-29.57l49.43 -7.55 25.49 -186.14 -468.66 -9.28 53.08 232.54z"/>
    <path class="fil0" d="M3577.84 4176.11c-173.76,43.17 -106.2,294.33 56.7,257.59 176.3,-39.76 109.28,-298.84 -56.7,-257.59z"/>
    <path class="fil0 str0" d="M1971.64 4173.72c-176.49,24.76 -140.62,283.8 35,261.79 66.17,-8.29 121.62,-73 111.02,-149.95 -8.88,-64.44 -71.47,-122.3 -146.02,-111.84z"/>
    <path class="fil0" d="M3577.96 2380.07l343.32 6.83 25.5 -131.19 -343.4 -41.11 -6.22 17.03c-1.1,5.88 -1.77,15.23 -2.58,21.59l-16.62 126.85z"/>
    <path class="fil0" d="M3516.19 2828.98l320.95 -32.44c7.73,-16.05 24.15,-110.59 22.96,-118.43l-323.1 -6.3 -20.81 157.17z"/>
   </g>
  </g>
 </g>
</svg>
