<?xml version="1.0" encoding="UTF-8"?>
<!DOCTYPE svg PUBLIC "-//W3C//DTD SVG 1.1//EN" "http://www.w3.org/Graphics/SVG/1.1/DTD/svg11.dtd">
<!-- Creator: CorelDRAW 2019 (64-Bit) -->
<svg xmlns="http://www.w3.org/2000/svg" xml:space="preserve" width="21.59cm" height="9.5cm" version="1.1" style="shape-rendering:geometricPrecision; text-rendering:geometricPrecision; image-rendering:optimizeQuality; fill-rule:evenodd; clip-rule:evenodd"
viewBox="0 0 21590 9500"
 xmlns:xlink="http://www.w3.org/1999/xlink">
 <defs>
  <style type="text/css">
   <![CDATA[
    .fil2 {fill:#FED642}
    .fil1 {fill:#D9D9D9}
    .fil0 {fill:white}
    .fil3 {fill:#373435;fill-rule:nonzero}
   ]]>
  </style>
 </defs>
 <g id="Layer_x0020_1">
  <metadata id="CorelCorpID_0Corel-Layer"/>
  <g id="_1968075454560">
   <path class="fil0" d="M8031.01 7075.85c32.43,8.47 217.89,2.35 265.83,2.35 788.95,0 1577.89,0 2366.84,0 361.02,0 585.66,-17.05 931.45,-118.08 67.66,-19.77 131.92,-42.51 195.23,-67.57 60.79,-24.06 127.82,-50.1 183.98,-78.71 139.21,-70.92 207.02,-104.93 337.79,-190.56 67.43,-44.16 267.66,-190.97 334.32,-258.23 13.94,-14.06 20.57,-18.95 33.6,-30.48 11.88,-10.51 22.2,-22.74 33.76,-33.43l159.71 -166.92c405.24,-470.91 649.7,-1045.83 680.18,-1685.45 2.07,-43.48 3.09,-86.98 3.29,-130.51 0.2,-44.83 -4.32,-87.97 -4.4,-131.31 8.55,-22.15 -9.68,-165.3 -13.1,-195.1 -14.21,-123.79 -37.53,-244.32 -66.99,-362.18 -53.7,-214.84 -134.59,-421.75 -239.15,-615.98l-118.27 -202.01c-14.48,-21.71 -27.39,-43.01 -42.44,-63.26 -54.7,-73.65 -123.87,-175.78 -187.05,-242.12 -35.47,-37.24 -61.97,-71.58 -102.48,-112.1 -34,-34 -72.02,-76.85 -108.57,-106.01l-84.15 -75.99c-71.48,-55.86 -128.81,-108.54 -210.63,-164.1 -11.7,-7.94 -20.91,-13.54 -32.33,-22.11 -65.39,-49.12 -232.27,-143.11 -302.29,-178.12 -49.26,-24.64 -94.63,-47.1 -145.28,-69.31 -243.49,-106.76 -540.54,-189.14 -804.1,-214.38 -17.03,-1.63 -32.23,-2.08 -50.06,-4.39 -28.59,-3.71 -67.72,-4.91 -97.44,-8.25 -16.03,-1.8 -34.52,0.43 -50.79,-0.45 -84.05,-4.54 -124.11,-4.54 -208.15,0 -17.26,0.93 -37.05,-1.45 -54,0.45 -29.71,3.34 -68.88,4.54 -97.46,8.23 -34.3,4.42 -66.42,5.71 -98.56,10.34 -198.45,28.57 -332.64,56.14 -523.86,119.89 -87.58,29.21 -219.27,80.69 -306.58,122.59 -24.78,11.9 -45.78,22.96 -70.42,35.28 -161.77,80.88 -314.74,181.43 -456.92,292.51l-226.6 199.38c-40.68,40.68 -80.44,79.44 -117.04,123.16l-49.55 56.14c-5.93,6.65 -8.19,8.3 -13.57,15.26 -38.98,50.45 -75.83,91.22 -117.14,148.68 -56.26,78.24 -162.28,239.64 -206.36,328.51 -18.65,37.6 -54.47,103.66 -71.36,143.22 -11.3,26.49 -21.38,49.1 -33.21,75.69 -26.12,58.72 -38.09,97.56 -60.09,154.49 -54.5,140.95 -106.94,360.68 -129.04,511.51 -9.34,63.8 -15.84,127 -22.87,191.71 -3.6,33.06 -2.95,68.44 -6.41,99.29l-0.47 2840.38c0,8.63 -0.03,17.22 -0.12,25.85 -0.14,14.65 -1.79,20.53 3.32,22.2z"/>
   <path class="fil1" d="M8031.01 7075.85l0 51.23c925.6,0 1851.2,0 2776.79,0 47.82,0 86.23,-3.04 131.43,-3.09 42.14,-0.05 208.58,-18.59 242.34,-23.49 300.3,-43.57 464.51,-98.18 722.04,-203.56l46.53 -20.73c15.72,-7.33 31.36,-14.01 45.9,-21.35 253.15,-127.81 314.72,-173.24 526.65,-331.69l210.78 -186.37c24.9,-25.04 95.98,-96.39 112.64,-117.95l48.05 -54.45c9.28,-11.95 19.71,-22.57 29.68,-34.37 5.18,-6.12 9.44,-11.78 14.21,-17.81 6.13,-7.73 10.14,-11.91 16.06,-19.18 118.06,-144.95 176.36,-243.23 265.52,-397.45 31.83,-55.07 83.48,-159.03 109.63,-220.25 108.01,-252.8 182.03,-499.35 213.7,-782.36 4.3,-38.38 8.16,-80.62 12.34,-118.97l6.92 -127.6c-0.17,-29.4 1.8,-176.16 -1.39,-197.26 -1.71,-11.26 -2.13,-17.48 -1.84,-30.16 0.94,-40.3 0.73,-27.31 -6.4,-32.04 0.08,43.34 4.6,86.48 4.4,131.31 -0.2,43.53 -1.22,87.03 -3.29,130.51 -30.48,639.62 -274.94,1214.54 -680.18,1685.45l-159.71 166.92c-11.56,10.69 -21.88,22.92 -33.76,33.43 -13.03,11.53 -19.66,16.42 -33.6,30.48 -66.66,67.26 -266.89,214.07 -334.32,258.23 -130.77,85.63 -198.58,119.64 -337.79,190.56 -56.16,28.61 -123.19,54.65 -183.98,78.71 -63.31,25.06 -127.57,47.8 -195.23,67.57 -345.79,101.03 -570.43,118.08 -931.45,118.08 -788.95,0 -1577.89,0 -2366.84,0 -47.94,0 -233.4,6.12 -265.83,-2.35z"/>
   <path class="fil0" d="M9658.78 5238.95l319.51 0c-4.89,-214.95 50.69,-434.26 137.07,-597.87 63.01,-119.37 78.06,-128.06 150.16,-218.15 29.05,-36.3 107.38,-103.97 146.22,-132.39l55.35 -39.84c-45.16,5.62 -124.93,41.24 -164.42,58.84 -244.2,108.86 -444.56,327.31 -547.81,573.21 -41.74,99.41 -84.09,236.93 -96.08,356.2z"/>
   <g>
    <path class="fil2" d="M10725.45 4193.65c0,-140.14 10.82,-266.7 76.08,-379.07l66.6 -92.02c73.7,-87.47 167.53,-150.28 281.91,-180.11 193.31,-50.43 454.42,-20.01 604.82,125.23 114.95,111 191.23,255.96 191.23,429.43l0 1544.76 -1220.64 0 0 -1448.22zm-365.5 27.59l-96.55 0c0,-108.35 13.8,-208.89 13.8,-317.24l96.54 0c0,107.12 -13.79,205.79 -13.79,317.24zm944.78 -986.17c-45.06,10.51 -89.03,18.05 -110.59,68.73 -24.51,57.67 -7.42,62.1 -6.64,96.79 -78.57,6.53 -156.34,43.92 -216.11,73.52 -183.09,90.65 -363.18,335.56 -363.18,519.56 -24.21,-17.75 -27.56,-44.79 -61.78,-69.25 -59.7,-42.71 -99.6,-33.87 -165.61,-26.04l-0.18 -35.74c-39.9,0 -57.38,-6.9 -103.44,-6.9l0 41.39c-104.36,0 -255.14,-46.25 -348.86,-85.63 -163.25,-68.61 -97.73,-42.87 -126.71,-162.92 -10.37,-42.93 -21.29,-68.97 -42.78,-102.04 -110.68,-170.16 -372.74,-117.86 -442.54,44.85 -36.13,84.24 -3.88,240.03 -4.5,347.01 -0.75,131.21 6.81,241.28 6.81,372.49 0,126.44 0,252.86 0,379.3 81.03,6.74 167.8,12.49 255.43,13.52l254.9 14.07 0 -586.18c33.43,7.79 64.63,20.65 99.05,31.95 74.87,24.62 203.89,51.25 281.18,56.73 49.77,3.54 47.32,-8.17 47.32,56.12 45.87,0 59.71,6.9 103.45,6.9l0 -55.16c58.88,0 140.82,-1.69 192.15,-28.55 20.3,-10.62 22.86,-20.49 42.32,-33.53l0 1606.84 1482.68 0 0 -1696.48c0,-257.22 -148.18,-462.44 -357.17,-594.5 -41.4,-26.17 -174.45,-79.96 -235.88,-81.33 21.81,-93.66 -18.98,-157.34 -117.26,-165.52 0,-55.34 10.57,-103.44 -34.47,-103.44 -40.08,0 -27.59,64.61 -27.59,103.44z"/>
    <path class="fil2" d="M9125.53 6152.18c0,29.28 3.84,43.85 15.78,66.96 7.13,13.78 5.28,10.31 13.41,21.09 0.16,0.22 8.2,10.09 9.34,11.35 8.84,9.89 3.45,4.13 10.19,10.48 29.23,27.61 68.65,44.58 108.71,48.74l38.08 0c46.89,-5.05 90.44,-29.17 114.54,-76.12 25.53,-49.7 44.92,-153.37 103.71,-268.69 20.95,-41.07 38.17,-83.11 59.77,-126.44l124.18 -248.22c41.41,-88.83 67.65,-176.42 91.91,-280.5 38.65,25.9 134.27,168.93 156.25,209.26 71.87,131.95 92.15,185.3 137.7,324.35 49.97,152.59 42.39,320.25 93.73,375.21 114.11,122.1 295.04,55.43 295.04,-67.47 0,-293.58 -150.46,-648.92 -313.06,-893.79 -66.55,-100.24 -99.85,-123.49 -158.8,-199.8 -16.22,-20.99 -41.43,-45.43 -60.78,-63.33l-65.66 -58.49c-21.95,-19.44 -47.21,-37.8 -70.62,-53.5 0,-19.84 2.51,-59.36 0.68,-76.55 -3.58,-33.9 -10.07,-28.03 -48.44,-27.41 -77.25,1.28 -156.61,-9.82 -221.18,-13.29 -26.56,-1.44 -56,1.85 -82.43,-0.35 -39.83,-3.29 -101.64,-12.24 -148.46,-10.32 -25.28,1.03 -12.01,13.38 -10.78,121.3 1.69,148.44 60.89,168.19 84.03,233.22 13.43,37.75 22.09,80.99 37.8,121.14 15.74,40.2 -0.94,76.95 -12.59,119.84 -9.57,35.26 -26.17,84.25 -39.92,118.67 -57.53,143.96 -262.13,570.38 -262.13,682.66z"/>
    <path class="fil2" d="M10815.09 5152.23l351.71 0c15.9,0 20.7,-4.79 20.7,-20.69l0 -930.99 -372.41 0 0 951.68z"/>
    <path class="fil2" d="M11490.92 4600.54l124.13 0 0 75.85 -124.13 0 0 -75.85zm-41.36 75.85l-213.78 0 0 475.84 613.75 0 0 -475.84 -193.09 0 0 -117.23 -206.88 0 0 117.23z"/>
    <polygon class="fil2" points="10842.68,5538.43 11849.53,5538.43 11849.53,5269.47 10842.68,5269.47 "/>
    <path class="fil2" d="M9284.13 3110.94c0,62.42 -1.74,83.64 29.74,142.68 16.85,31.63 30.69,45.88 54.56,69.57 21.74,21.58 45.06,35.54 76.06,48.08 94.3,38.14 218.39,11.41 282.82,-58.5 80.44,-87.29 95.67,-199.23 39.56,-305.27 -46.3,0 -62.97,-6.69 -103.17,-7.17l-224.95 -9.53c-37.02,-5.62 -73.36,-4 -113.24,-4 -19.23,36.37 -41.38,68.04 -41.38,124.14z"/>
    <path class="fil2" d="M10780.61 6055.64c0,111.86 70.18,182.28 166.09,185.09 221.88,6.53 236.11,-343.69 -0.57,-343.69 -82.2,0 -165.52,74.98 -165.52,158.6z"/>
    <path class="fil2" d="M11511.61 6069.43c0,91.04 89.92,172.42 165.52,172.42 101.09,0 179.29,-77.89 179.29,-179.32 0,-125.5 -168.92,-230.36 -289.17,-116.78l-19.53 21.86c-19.59,26.18 -36.11,69.68 -36.11,101.82z"/>
    <path class="fil2" d="M9325.51 2841.98l0 110.36 386.68 20.44c85.37,8.22 67.24,-7.08 68.2,-96.59 0.41,-37.64 7.17,-41.06 7.17,-75.57 -66.92,0 -160.72,-5.94 -221.68,-12.79 -37.78,-4.25 -76.93,2.23 -114.36,-2.91 -31.88,-4.36 -65.16,-4.91 -104.38,-5l-14.73 0c-0.71,31.18 -6.9,27.41 -6.9,62.06z"/>
   </g>
   <polygon class="fil3" points="9842.04,7968.86 9784.47,7968.86 9784.47,7658.13 9628.68,7658.13 9628.68,7968.86 9571.11,7968.86 9571.11,7322 9628.68,7322 9628.68,7606.49 9784.47,7606.49 9784.47,7322 9842.04,7322 "/>
   <path id="1" class="fil3" d="M10169.56 7920.88c-0.28,32.03 -16.22,47.98 -47.97,47.98l-135.19 0c-31.75,0 -47.69,-15.95 -47.98,-47.98l0 -306.21c0.29,-32.03 16.23,-47.98 47.98,-47.98l135.19 0c31.75,0 47.69,15.95 47.97,47.98l0 306.21zm-55.03 -0.28l0 -305.65 -121.07 0 0 305.65 121.07 0z"/>
   <path id="2" class="fil3" d="M10403.95 7968.86l-76.48 0c-31.89,-0.14 -47.84,-16.09 -47.98,-47.98l0 -305.93 -48.26 0 0 -48.26 48.26 0 0 -125.31 54.19 0 0 125.31 70.27 0 0 48.26 -70.27 0 0 305.65 70.27 0 0 48.26z"/>
   <path id="3" class="fil3" d="M10699.3 7921.87c-0.28,31.19 -16.23,46.85 -47.98,46.99l-129.26 0c-31.75,0 -47.69,-15.95 -47.98,-47.98l0 -306.21c0.29,-32.03 16.23,-47.98 47.98,-47.98l129.26 0c31.75,0 47.84,15.95 47.98,47.98l0 143.37 -18.63 19.47 -153.25 0 0 145.63 118.54 0 0 -74.51 53.34 0 0 73.24zm-53.34 -188.38l0 -121.08 -118.54 0 0 121.08 118.54 0z"/>
   <polygon id="4" class="fil3" points="10847.47,7968.86 10793.28,7968.86 10793.28,7322 10847.47,7322 "/>
   <path id="5" class="fil3" d="M11165.96 7921.87c-0.28,31.19 -16.23,46.85 -47.98,46.99l-129.26 0c-31.75,0 -47.69,-15.95 -47.98,-47.98l0 -306.21c0.29,-32.03 16.23,-47.98 47.98,-47.98l129.26 0c31.75,0 47.84,15.95 47.98,47.98l0 143.37 -18.63 19.47 -153.25 0 0 145.63 118.54 0 0 -74.51 53.34 0 0 73.24zm-53.34 -188.38l0 -121.08 -118.54 0 0 121.08 118.54 0z"/>
   <path id="6" class="fil3" d="M11473.3 7920.88c0,31.75 -15.94,47.7 -47.98,47.98l-123.33 0c-32.03,-0.28 -47.98,-16.23 -47.98,-47.98l0 -89.18 54.19 0 0 89.75 110.91 0 0 -80.3 -143.65 -117.82c-13.69,-11.01 -20.6,-25.26 -20.6,-42.9l0 -65.76c0,-31.75 15.95,-47.7 47.98,-47.98l121.64 0c32.03,0.28 47.97,16.23 47.97,47.98l0 78.18 -53.34 0 0 -78.74 -110.91 0 0 70.41 144.92 117.69c13.41,10.72 20.18,25.4 20.18,43.88l0 74.79z"/>
  </g>
 </g>
</svg>
