<?xml version="1.0" encoding="UTF-8"?>
<!DOCTYPE svg PUBLIC "-//W3C//DTD SVG 1.1//EN" "http://www.w3.org/Graphics/SVG/1.1/DTD/svg11.dtd">
<!-- Creator: CorelDRAW 2019 (64-Bit) -->
<svg xmlns="http://www.w3.org/2000/svg" xml:space="preserve" width="5.6cm" height="6.5cm" version="1.1" style="shape-rendering:geometricPrecision; text-rendering:geometricPrecision; image-rendering:optimizeQuality; fill-rule:evenodd; clip-rule:evenodd"
viewBox="0 0 5600 6500"
 xmlns:xlink="http://www.w3.org/1999/xlink">
 <defs>
  <style type="text/css">
   <![CDATA[
    .fil3 {fill:#E09A9D}
    .fil1 {fill:#D9D9D9}
    .fil0 {fill:white}
    .fil2 {fill:#373435;fill-rule:nonzero}
   ]]>
  </style>
 </defs>
 <g id="Layer_x0020_1">
  <metadata id="CorelCorpID_0Corel-Layer"/>
  <g id="_1967748559488">
   <path class="fil0" d="M33.55 5492.58c32.43,8.47 217.89,2.35 265.83,2.35 788.95,0 1577.89,0 2366.84,0 361.02,0 585.66,-17.05 931.45,-118.08 67.66,-19.77 131.92,-42.51 195.23,-67.57 60.79,-24.06 127.82,-50.1 183.98,-78.71 139.21,-70.92 207.02,-104.93 337.79,-190.56 67.43,-44.16 267.66,-190.97 334.32,-258.23 13.94,-14.06 20.57,-18.95 33.6,-30.48 11.88,-10.51 22.2,-22.74 33.76,-33.43l159.71 -166.92c405.24,-470.91 649.7,-1045.83 680.18,-1685.45 2.07,-43.48 3.09,-86.98 3.29,-130.51 0.2,-44.83 -4.32,-87.97 -4.4,-131.31 8.55,-22.15 -9.68,-165.3 -13.1,-195.1 -14.21,-123.79 -37.53,-244.32 -66.99,-362.18 -53.7,-214.84 -134.59,-421.75 -239.15,-615.98l-118.27 -202.01c-14.48,-21.71 -27.39,-43.01 -42.44,-63.26 -54.7,-73.65 -123.87,-175.78 -187.05,-242.12 -35.47,-37.24 -61.97,-71.58 -102.48,-112.1 -34,-34 -72.02,-76.85 -108.57,-106.01l-84.15 -75.99c-71.48,-55.86 -128.81,-108.54 -210.63,-164.1 -11.7,-7.94 -20.91,-13.54 -32.33,-22.11 -65.39,-49.12 -232.27,-143.11 -302.29,-178.12 -49.26,-24.64 -94.63,-47.1 -145.28,-69.31 -243.49,-106.76 -540.54,-189.14 -804.1,-214.38 -17.03,-1.63 -32.23,-2.08 -50.06,-4.39 -28.59,-3.71 -67.72,-4.91 -97.44,-8.25 -16.03,-1.8 -34.52,0.43 -50.79,-0.45 -84.05,-4.54 -124.11,-4.54 -208.15,0 -17.26,0.93 -37.05,-1.45 -54,0.45 -29.71,3.34 -68.88,4.54 -97.46,8.23 -34.3,4.42 -66.42,5.71 -98.56,10.34 -198.45,28.57 -332.64,56.14 -523.86,119.89 -87.58,29.21 -219.27,80.69 -306.58,122.59 -24.78,11.9 -45.78,22.96 -70.42,35.28 -161.77,80.88 -314.74,181.43 -456.92,292.51l-226.6 199.38c-40.68,40.68 -80.44,79.44 -117.04,123.16l-49.55 56.14c-5.93,6.65 -8.19,8.3 -13.57,15.26 -38.98,50.45 -75.83,91.22 -117.14,148.68 -56.26,78.24 -162.28,239.64 -206.36,328.51 -18.65,37.6 -54.47,103.66 -71.36,143.22 -11.3,26.49 -21.38,49.1 -33.21,75.69 -26.12,58.72 -38.09,97.56 -60.09,154.49 -54.5,140.95 -106.94,360.68 -129.04,511.51 -9.34,63.8 -15.84,127 -22.87,191.71 -3.6,33.06 -2.95,68.44 -6.41,99.29l-0.47 2840.38c0,8.63 -0.03,17.22 -0.12,25.85 -0.14,14.65 -1.79,20.53 3.32,22.2z"/>
   <path class="fil1" d="M33.55 5492.58l0 51.23c925.6,0 1851.2,0 2776.79,0 47.82,0 86.23,-3.04 131.43,-3.09 42.14,-0.05 208.58,-18.59 242.34,-23.49 300.3,-43.57 464.51,-98.18 722.04,-203.56l46.53 -20.73c15.72,-7.33 31.36,-14.01 45.9,-21.35 253.15,-127.81 314.72,-173.24 526.65,-331.69l210.78 -186.37c24.9,-25.04 95.98,-96.39 112.64,-117.95l48.05 -54.45c9.28,-11.95 19.71,-22.57 29.68,-34.37 5.18,-6.12 9.44,-11.78 14.21,-17.81 6.13,-7.73 10.14,-11.91 16.06,-19.18 118.06,-144.95 176.36,-243.23 265.52,-397.45 31.83,-55.07 83.48,-159.03 109.63,-220.25 108.01,-252.8 182.03,-499.35 213.7,-782.36 4.3,-38.38 8.16,-80.62 12.34,-118.97l6.92 -127.6c-0.17,-29.4 1.8,-176.16 -1.39,-197.26 -1.71,-11.26 -2.13,-17.48 -1.84,-30.16 0.94,-40.3 0.73,-27.31 -6.4,-32.04 0.08,43.34 4.6,86.48 4.4,131.31 -0.2,43.53 -1.22,87.03 -3.29,130.51 -30.48,639.62 -274.94,1214.54 -680.18,1685.45l-159.71 166.92c-11.56,10.69 -21.88,22.92 -33.76,33.43 -13.03,11.53 -19.66,16.42 -33.6,30.48 -66.66,67.26 -266.89,214.07 -334.32,258.23 -130.77,85.63 -198.58,119.64 -337.79,190.56 -56.16,28.61 -123.19,54.65 -183.98,78.71 -63.31,25.06 -127.57,47.8 -195.23,67.57 -345.79,101.03 -570.43,118.08 -931.45,118.08 -788.95,0 -1577.89,0 -2366.84,0 -47.94,0 -233.4,6.12 -265.83,-2.35z"/>
   <path class="fil0" d="M1661.32 3655.68l319.51 0c-4.89,-214.95 50.69,-434.26 137.07,-597.87 63.01,-119.37 78.06,-128.06 150.16,-218.15 29.05,-36.3 107.38,-103.97 146.22,-132.39l55.35 -39.84c-45.16,5.62 -124.93,41.24 -164.42,58.84 -244.2,108.86 -444.56,327.31 -547.81,573.21 -41.74,99.41 -84.09,236.93 -96.08,356.2z"/>
   <polygon class="fil2" points="1488.98,6385.59 1431.41,6385.59 1431.41,6074.86 1275.62,6074.86 1275.62,6385.59 1218.05,6385.59 1218.05,5738.73 1275.62,5738.73 1275.62,6023.22 1431.41,6023.22 1431.41,5738.73 1488.98,5738.73 "/>
   <path id="1" class="fil2" d="M1816.5 6337.61c-0.28,32.03 -16.22,47.98 -47.97,47.98l-135.19 0c-31.75,0 -47.69,-15.95 -47.98,-47.98l0 -306.21c0.29,-32.03 16.23,-47.98 47.98,-47.98l135.19 0c31.75,0 47.69,15.95 47.97,47.98l0 306.21zm-55.03 -0.28l0 -305.65 -121.07 0 0 305.65 121.07 0z"/>
   <path id="2" class="fil2" d="M2122.86 6337.61c0,31.75 -15.94,47.7 -47.98,47.98l-123.33 0c-32.03,-0.28 -47.98,-16.23 -47.98,-47.98l0 -89.18 54.19 0 0 89.75 110.91 0 0 -80.3 -143.65 -117.82c-13.69,-11.01 -20.6,-25.26 -20.6,-42.9l0 -65.76c0,-31.75 15.95,-47.7 47.98,-47.98l121.64 0c32.03,0.28 47.97,16.23 47.97,47.98l0 78.18 -53.34 0 0 -78.74 -110.91 0 0 70.41 144.92 117.69c13.41,10.72 20.18,25.4 20.18,43.88l0 74.79z"/>
   <path id="3" class="fil2" d="M2441.06 6298.38c0,24.84 -8.18,45.72 -24.69,62.23 -16.51,16.65 -37.11,24.98 -61.67,24.98l-89.74 0 0 152.4 -55.04 0 0 -554.57 55.04 0 0 11.29c21.45,-2.82 42.9,-5.5 64.34,-8.32 27.1,-3.67 48.41,-5.51 63.79,-5.51 32.03,0 47.97,15.95 47.97,47.98l0 269.52zm-55.03 -7.33l0 -258.52 -121.07 3.67 0 301.13 76.06 0c30.05,0 45.01,-15.38 45.01,-46.28z"/>
   <path id="4" class="fil2" d="M2587.53 5895.37l-55.88 0 0 -70.28 55.88 0 0 70.28zm-0.84 490.22l-54.19 0 0 -402.17 54.19 0 0 402.17z"/>
   <path id="5" class="fil2" d="M2824.74 6385.59l-76.48 0c-31.89,-0.14 -47.84,-16.09 -47.98,-47.98l0 -305.93 -48.26 0 0 -48.26 48.26 0 0 -125.31 54.19 0 0 125.31 70.27 0 0 48.26 -70.27 0 0 305.65 70.27 0 0 48.26z"/>
   <path id="6" class="fil2" d="M3122.63 6385.59l-54.19 0 0 -11.01c-21.73,2.97 -43.46,5.93 -65.33,8.61 -26.96,3.25 -48.69,4.94 -65.06,4.94 -29.91,0 -44.87,-15.95 -44.87,-47.98l0 -141.96c0.28,-31.75 14.96,-47.69 43.89,-47.97l132.22 0 0 -121.08 -118.54 0 0 67.74 -53.34 0 0 -66.89c0.29,-30.9 14.82,-46.43 43.75,-46.57l133.49 0c31.89,0.14 47.84,15.81 47.98,47.13l0 355.04zm-53.34 -49.95l0 -142.24 -122.77 0 0 144.78 122.77 -2.54z"/>
   <polygon id="7" class="fil2" points="3269.95,6385.59 3215.76,6385.59 3215.76,5738.73 3269.95,5738.73 "/>
   <path id="8" class="fil2" d="M3588.44 6338.6c-0.28,31.19 -16.23,46.85 -47.98,46.99l-129.26 0c-31.75,0 -47.69,-15.95 -47.98,-47.98l0 -306.21c0.29,-32.03 16.23,-47.98 47.98,-47.98l129.26 0c31.75,0 47.84,15.95 47.98,47.98l0 143.37 -18.63 19.47 -153.25 0 0 145.63 118.54 0 0 -74.51 53.34 0 0 73.24zm-53.34 -188.38l0 -121.08 -118.54 0 0 121.08 118.54 0z"/>
   <path id="9" class="fil2" d="M3895.78 6337.61c0,31.75 -15.94,47.7 -47.98,47.98l-123.33 0c-32.03,-0.28 -47.98,-16.23 -47.98,-47.98l0 -89.18 54.19 0 0 89.75 110.91 0 0 -80.3 -143.65 -117.82c-13.69,-11.01 -20.6,-25.26 -20.6,-42.9l0 -65.76c0,-31.75 15.95,-47.7 47.98,-47.98l121.64 0c32.03,0.28 47.97,16.23 47.97,47.98l0 78.18 -53.34 0 0 -78.74 -110.91 0 0 70.41 144.92 117.69c13.41,10.72 20.18,25.4 20.18,43.88l0 74.79z"/>
   <g>
    <path class="fil3" d="M1635.92 3481.56l-0.07 995.4c-0.49,111.46 63.12,86.42 251.4,86.42 148.27,0 1638.01,6.8 1666.86,-4.4 47.69,-18.53 37.2,-76.92 37.2,-129.22l-0.01 -1169.91c0,-341.35 0,-459.6 0,-797.25l0 -651.01c0,-103.44 7.98,-212.19 -20.32,-306.34 -46.39,-154.41 -168.75,-277.44 -323.74,-322.35 -95.55,-27.68 -204.91,-19.6 -308.01,-19.6 -215.42,0 -430.85,0 -646.28,0 -102.5,0 -213.93,-8.37 -309.14,18.55 -155.94,44.09 -282.02,168.79 -327.89,323.15 -27.92,93.94 -20,202.74 -20,306.59 -0.04,1313.15 0,687.04 0,1669.97z"/>
    <path class="fil0" d="M2067.14 4443.07l1093 0.56c8.04,-205.64 -0.06,-425.14 0.51,-631.87 0.29,-106.12 -25.55,-85.4 -230.85,-85.07 -105.09,0.17 -210.69,0.32 -316.07,0.06l-471.83 -0.19c-69.88,-0.24 -75.72,17.72 -75.4,85.21 0.97,205.76 -8.68,427.91 0.64,631.3z"/>
    <path class="fil0" d="M2567.19 1432.53c-232.86,27.42 -430.66,229.9 -403.17,494.73 24.44,235.31 235.61,432.5 501.72,402.98 228.35,-25.33 426.21,-236.48 397.02,-496.67 -25.81,-230.04 -232.33,-432.04 -495.57,-401.04z"/>
    <path class="fil0" d="M2979.39 2865.28l337 2.79 2.13 -340.14c-64.92,0.4 -294.13,-8.41 -339.06,2.81l-0.07 334.54z"/>
    <polygon class="fil0" points="1908.16,2867.15 2247.69,2866.81 2247.63,2528.33 1909.09,2527.99 "/>
    <path class="fil0" d="M1908.29 3394.87c22.29,5.71 319.1,5.61 339.81,-0.28l-0.26 -334.15 -338.76 -1.81 -0.79 336.24z"/>
    <path class="fil0" d="M2979.29 3394.75c22.8,6.09 319.93,5.94 339.28,-0.42l0 -333.95 -338.43 -1.72 -0.85 336.09z"/>
    <polygon class="fil0" points="2444.01,2866.46 2782.05,2867.05 2783.33,2529.13 2444.22,2528.03 "/>
    <polygon class="fil0" points="2443.86,3396.59 2783.21,3397.61 2783.18,3059.26 2445.45,3058.61 "/>
    <rect class="fil3" x="2538.79" y="1614.19" width="167.07" height="538.08"/>
    <rect class="fil3" transform="matrix(1.47566E-14 -0.557176 0.557176 1.47566E-14 2353.29 1966.77)" width="299.86" height="965.73"/>
   </g>
  </g>
 </g>
</svg>
