<?xml version="1.0" encoding="UTF-8"?>
<!DOCTYPE svg PUBLIC "-//W3C//DTD SVG 1.1//EN" "http://www.w3.org/Graphics/SVG/1.1/DTD/svg11.dtd">
<!-- Creator: CorelDRAW 2019 (64-Bit) -->
<svg xmlns="http://www.w3.org/2000/svg" xml:space="preserve" width="5.6cm" height="6.5cm" version="1.1" style="shape-rendering:geometricPrecision; text-rendering:geometricPrecision; image-rendering:optimizeQuality; fill-rule:evenodd; clip-rule:evenodd"
viewBox="0 0 5600 6500"
 xmlns:xlink="http://www.w3.org/1999/xlink">
 <defs>
  <style type="text/css">
   <![CDATA[
    .fil3 {fill:#51A8B1}
    .fil1 {fill:#D9D9D9}
    .fil0 {fill:white}
    .fil2 {fill:#373435;fill-rule:nonzero}
   ]]>
  </style>
 </defs>
 <g id="Layer_x0020_1">
  <metadata id="CorelCorpID_0Corel-Layer"/>
  <g id="_1967869194160">
   <path class="fil0" d="M33.54 5567.51c32.43,8.47 217.89,2.35 265.83,2.35 788.95,0 1577.89,0 2366.84,0 361.02,0 585.66,-17.05 931.45,-118.08 67.66,-19.77 131.92,-42.51 195.23,-67.57 60.79,-24.06 127.82,-50.1 183.98,-78.71 139.21,-70.92 207.02,-104.93 337.79,-190.56 67.43,-44.16 267.66,-190.97 334.32,-258.23 13.94,-14.06 20.57,-18.95 33.6,-30.48 11.88,-10.51 22.2,-22.74 33.76,-33.43l159.71 -166.92c405.24,-470.91 649.7,-1045.83 680.18,-1685.45 2.07,-43.48 3.09,-86.98 3.29,-130.51 0.2,-44.83 -4.32,-87.97 -4.4,-131.31 8.55,-22.15 -9.68,-165.3 -13.1,-195.1 -14.21,-123.79 -37.53,-244.32 -66.99,-362.18 -53.7,-214.84 -134.59,-421.75 -239.15,-615.98l-118.27 -202.01c-14.48,-21.71 -27.39,-43.01 -42.44,-63.26 -54.7,-73.65 -123.87,-175.78 -187.05,-242.12 -35.47,-37.24 -61.97,-71.58 -102.48,-112.1 -34,-34 -72.02,-76.85 -108.57,-106.01l-84.15 -75.99c-71.48,-55.86 -128.81,-108.54 -210.63,-164.1 -11.7,-7.94 -20.91,-13.54 -32.33,-22.11 -65.39,-49.12 -232.27,-143.11 -302.29,-178.12 -49.26,-24.64 -94.63,-47.1 -145.28,-69.31 -243.49,-106.76 -540.54,-189.14 -804.1,-214.38 -17.03,-1.63 -32.23,-2.08 -50.06,-4.39 -28.59,-3.71 -67.72,-4.91 -97.44,-8.25 -16.03,-1.8 -34.52,0.43 -50.79,-0.45 -84.05,-4.54 -124.11,-4.54 -208.15,0 -17.26,0.93 -37.05,-1.45 -54,0.45 -29.71,3.34 -68.88,4.54 -97.46,8.23 -34.3,4.42 -66.42,5.71 -98.56,10.34 -198.45,28.57 -332.64,56.14 -523.86,119.89 -87.58,29.21 -219.27,80.69 -306.58,122.59 -24.78,11.9 -45.78,22.96 -70.42,35.28 -161.77,80.88 -314.74,181.43 -456.92,292.51l-226.6 199.38c-40.68,40.68 -80.44,79.44 -117.04,123.16l-49.55 56.14c-5.93,6.65 -8.19,8.3 -13.57,15.26 -38.98,50.45 -75.83,91.22 -117.14,148.68 -56.26,78.24 -162.28,239.64 -206.36,328.51 -18.65,37.6 -54.47,103.66 -71.36,143.22 -11.3,26.49 -21.38,49.1 -33.21,75.69 -26.12,58.72 -38.09,97.56 -60.09,154.49 -54.5,140.95 -106.94,360.68 -129.04,511.51 -9.34,63.8 -15.84,127 -22.87,191.71 -3.6,33.06 -2.95,68.44 -6.41,99.29l-0.47 2840.38c0,8.63 -0.03,17.22 -0.12,25.85 -0.14,14.65 -1.79,20.53 3.32,22.2z"/>
   <path class="fil1" d="M33.54 5567.51l0 51.23c925.6,0 1851.2,0 2776.79,0 47.82,0 86.23,-3.04 131.43,-3.09 42.14,-0.05 208.58,-18.59 242.34,-23.49 300.3,-43.57 464.51,-98.18 722.04,-203.56l46.53 -20.73c15.72,-7.33 31.36,-14.01 45.9,-21.35 253.15,-127.81 314.72,-173.24 526.65,-331.69l210.78 -186.37c24.9,-25.04 95.98,-96.39 112.64,-117.95l48.05 -54.45c9.28,-11.95 19.71,-22.57 29.68,-34.37 5.18,-6.12 9.44,-11.78 14.21,-17.81 6.13,-7.73 10.14,-11.91 16.06,-19.18 118.06,-144.95 176.36,-243.23 265.52,-397.45 31.83,-55.07 83.48,-159.03 109.63,-220.25 108.01,-252.8 182.03,-499.35 213.7,-782.36 4.3,-38.38 8.16,-80.62 12.34,-118.97l6.92 -127.6c-0.17,-29.4 1.8,-176.16 -1.39,-197.26 -1.71,-11.26 -2.13,-17.48 -1.84,-30.16 0.94,-40.3 0.73,-27.31 -6.4,-32.04 0.08,43.34 4.6,86.48 4.4,131.31 -0.2,43.53 -1.22,87.03 -3.29,130.51 -30.48,639.62 -274.94,1214.54 -680.18,1685.45l-159.71 166.92c-11.56,10.69 -21.88,22.92 -33.76,33.43 -13.03,11.53 -19.66,16.42 -33.6,30.48 -66.66,67.26 -266.89,214.07 -334.32,258.23 -130.77,85.63 -198.58,119.64 -337.79,190.56 -56.16,28.61 -123.19,54.65 -183.98,78.71 -63.31,25.06 -127.57,47.8 -195.23,67.57 -345.79,101.03 -570.43,118.08 -931.45,118.08 -788.95,0 -1577.89,0 -2366.84,0 -47.94,0 -233.4,6.12 -265.83,-2.35z"/>
   <path class="fil0" d="M1661.31 3730.61l319.51 0c-4.89,-214.95 50.69,-434.26 137.07,-597.87 63.01,-119.37 78.06,-128.06 150.16,-218.15 29.05,-36.3 107.38,-103.97 146.22,-132.39l55.35 -39.84c-45.16,5.62 -124.93,41.24 -164.42,58.84 -244.2,108.86 -444.56,327.31 -547.81,573.21 -41.74,99.41 -84.09,236.93 -96.08,356.2z"/>
   <path class="fil2" d="M1036 6460.52l-60.11 0 -120.23 -346.57 7.91 -11.57 102.16 0 0 -237.92 -147.32 0 0 596.06 -57.57 0 0 -646.86 214.49 0c14.11,0 25.68,4.52 34.57,13.41 8.89,8.89 13.4,20.46 13.4,34.57l0 241.87c0,32.03 -20.88,47.98 -62.79,47.98 -4.09,0 -10.16,-0.15 -18.2,-0.57 -7.91,-0.42 -13.69,-0.7 -17.36,-0.7 37.25,103.15 74.22,206.58 111.05,310.3z"/>
   <path id="1" class="fil2" d="M1340.67 6413.53c-0.28,31.19 -16.23,46.85 -47.98,46.99l-129.26 0c-31.75,0 -47.69,-15.95 -47.98,-47.98l0 -306.21c0.29,-32.03 16.23,-47.98 47.98,-47.98l129.26 0c31.75,0 47.84,15.95 47.98,47.98l0 143.37 -18.63 19.47 -153.25 0 0 145.63 118.54 0 0 -74.51 53.34 0 0 73.24zm-53.34 -188.38l0 -121.08 -118.54 0 0 121.08 118.54 0z"/>
   <path id="2" class="fil2" d="M1648.01 6412.54c0,31.75 -15.94,47.7 -47.98,47.98l-123.33 0c-32.03,-0.28 -47.98,-16.23 -47.98,-47.98l0 -89.18 54.19 0 0 89.75 110.91 0 0 -80.3 -143.65 -117.82c-13.69,-11.01 -20.6,-25.26 -20.6,-42.9l0 -65.76c0,-31.75 15.95,-47.7 47.98,-47.98l121.64 0c32.03,0.28 47.97,16.23 47.97,47.98l0 78.18 -53.34 0 0 -78.74 -110.91 0 0 70.41 144.92 117.69c13.41,10.72 20.18,25.4 20.18,43.88l0 74.79z"/>
   <path id="3" class="fil2" d="M1879.85 6460.52l-76.48 0c-31.89,-0.14 -47.84,-16.09 -47.98,-47.98l0 -305.93 -48.26 0 0 -48.26 48.26 0 0 -125.31 54.19 0 0 125.31 70.27 0 0 48.26 -70.27 0 0 305.65 70.27 0 0 48.26z"/>
   <path id="4" class="fil2" d="M2177.74 6460.52l-54.19 0 0 -11.01c-21.73,2.97 -43.46,5.93 -65.33,8.61 -26.96,3.25 -48.69,4.94 -65.06,4.94 -29.91,0 -44.87,-15.95 -44.87,-47.98l0 -141.96c0.28,-31.75 14.96,-47.69 43.89,-47.97l132.22 0 0 -121.08 -118.54 0 0 67.74 -53.34 0 0 -66.89c0.29,-30.9 14.82,-46.43 43.75,-46.57l133.49 0c31.89,0.14 47.84,15.81 47.98,47.13l0 355.04zm-53.34 -49.95l0 -142.24 -122.77 0 0 144.78 122.77 -2.54z"/>
   <path id="5" class="fil2" d="M2497.78 6460.52l-54.19 0 0 -11.29c-21.45,3.11 -42.9,5.93 -64.06,8.75 -25.83,3.39 -47.14,5.08 -64.07,5.08 -31.89,-0.28 -47.84,-16.23 -47.98,-47.98l0 -356.73 54.19 0 0 353.06 121.92 -3.67 0 -349.39 54.19 0 0 402.17z"/>
   <path id="6" class="fil2" d="M2798.34 6191.28l-54.18 0 0 -83.82 -101.6 3.53 0 349.53 -55.04 0 0 -402.17 55.04 0 0 11.29c18.2,-2.82 36.54,-5.64 55.03,-8.75 22.01,-3.38 40.36,-5.08 55.03,-5.08 30.34,0 45.58,15.95 45.72,47.98l0 87.49z"/>
   <path id="7" class="fil2" d="M3095.53 6460.52l-54.19 0 0 -11.01c-21.73,2.97 -43.46,5.93 -65.33,8.61 -26.96,3.25 -48.69,4.94 -65.06,4.94 -29.91,0 -44.87,-15.95 -44.87,-47.98l0 -141.96c0.28,-31.75 14.96,-47.69 43.89,-47.97l132.22 0 0 -121.08 -118.54 0 0 67.74 -53.34 0 0 -66.89c0.29,-30.9 14.82,-46.43 43.75,-46.57l133.49 0c31.89,0.14 47.84,15.81 47.98,47.13l0 355.04zm-53.34 -49.95l0 -142.24 -122.77 0 0 144.78 122.77 -2.54z"/>
   <path id="8" class="fil2" d="M3416.41 6460.52l-55.03 0 0 -353.06 -121.07 3.67 0 349.39 -55.04 0 0 -402.17 55.04 0 0 11.29c21.59,-2.82 43.32,-5.64 65.33,-8.75 26.25,-3.38 47.98,-5.08 65.05,-5.08 30.48,0 45.72,15.95 45.72,47.98l0 356.73z"/>
   <path id="9" class="fil2" d="M3650.09 6460.52l-76.48 0c-31.89,-0.14 -47.84,-16.09 -47.98,-47.98l0 -305.93 -48.26 0 0 -48.26 48.26 0 0 -125.31 54.19 0 0 125.31 70.27 0 0 48.26 -70.27 0 0 305.65 70.27 0 0 48.26z"/>
   <path id="10" class="fil2" d="M3945.44 6413.53c-0.28,31.19 -16.23,46.85 -47.98,46.99l-129.26 0c-31.75,0 -47.69,-15.95 -47.98,-47.98l0 -306.21c0.29,-32.03 16.23,-47.98 47.98,-47.98l129.26 0c31.75,0 47.84,15.95 47.98,47.98l0 143.37 -18.63 19.47 -153.25 0 0 145.63 118.54 0 0 -74.51 53.34 0 0 73.24zm-53.34 -188.38l0 -121.08 -118.54 0 0 121.08 118.54 0z"/>
   <path id="11" class="fil2" d="M4252.78 6412.54c0,31.75 -15.94,47.7 -47.98,47.98l-123.33 0c-32.03,-0.28 -47.98,-16.23 -47.98,-47.98l0 -89.18 54.19 0 0 89.75 110.91 0 0 -80.3 -143.65 -117.82c-13.69,-11.01 -20.6,-25.26 -20.6,-42.9l0 -65.76c0,-31.75 15.95,-47.7 47.98,-47.98l121.64 0c32.03,0.28 47.97,16.23 47.97,47.98l0 78.18 -53.34 0 0 -78.74 -110.91 0 0 70.41 144.92 117.69c13.41,10.72 20.18,25.4 20.18,43.88l0 74.79z"/>
   <g>
    <path class="fil3" d="M1782.81 1584.76c-461.13,-37.34 -734.01,80.76 -880.92,410.19 -169.63,380.4 54.74,813.3 323.96,907.8 -19.46,-30.52 -7.92,-12.31 -27.72,-37.01 -13.99,-17.45 -20.98,-24.68 -35.31,-42.01 -20.08,-24.3 -40.61,-48.71 -63.89,-84.8 -277.9,-430.82 -8.1,-1139.5 748.23,-994.86 182.39,-479.08 948.58,-561.45 1241.33,-117.52 -117.35,138.41 -214.21,150.01 -280.24,398.48 65.53,-45.58 197.32,-268.99 518.93,-325.56 259.78,-45.68 490.27,75.47 594.91,212.35 322.1,421.37 24.84,936.06 -463.99,961.25l0.04 1546.28c-124.84,-14.62 -268.26,-57.07 -403.67,-76.56 -862.44,-124.18 -1216.33,104.94 -1337.26,94.98 -117.53,-924.17 -55.64,-843.66 27.07,-1655.17 -285.11,358.04 -268.09,1331.97 -195.64,1805.75 76.8,7.82 382.72,-56.91 497.28,-67.33 888.97,-80.82 1355.75,108.29 1575.19,104.99l19.83 -1605.26c235.9,-101.27 321.3,-128.42 453.65,-312.96 113.99,-158.94 172.43,-398.56 112.29,-632.89 -54.45,-212.11 -180.42,-348.76 -323.1,-442.59 -222.21,-146.12 -365.33,-133.29 -646.4,-93.56 -187,-230.44 -373.13,-399.7 -746.42,-386.87 -472.34,16.23 -602.85,333.24 -708.15,432.88z"/>
    <path class="fil3" d="M3125.53 4088.13l-27.66 -1118.93c13.66,-47.52 126.79,-65.55 129.25,-298.09 1.23,-117.02 -29.93,-250.77 -101.9,-318.25 -183.72,-172.25 -297.57,266.09 -232.48,456.56 92.66,271.2 113.58,-166.07 97.14,717.97 -1.22,65.43 -28.98,553.71 -5.4,590.81 29.94,47.12 141.14,45.78 141.05,-30.07z"/>
    <path class="fil3" d="M2452.47 3081.12c0,148.11 -10.87,188.55 97.26,234.18 -2.44,84.53 -40.76,775.66 -2.6,813.92 23.11,23.17 67.69,27.31 99.08,6.17 41.36,-27.85 30.23,-58.67 29.26,-120.18l-14.4 -1705.12c-202.9,68.78 -208.6,524.2 -208.6,771.03z"/>
    <path class="fil3" d="M2003.68 2903.62c30.06,24.06 55.86,40.24 88.25,65.61l-20.86 932.41c-3.38,102.93 -45.1,242.87 66.91,246.52 115.54,3.77 76.77,-141.33 71.85,-246.49 -4.95,-105.9 -5.41,-211.43 -8.61,-317.37 -5.91,-195.33 -20.85,-422.13 -13.36,-615.07 114.63,-94.36 98.22,-112 88.66,-297.53 -5.43,-105.46 -10.04,-262.52 -32.61,-351l-4.57 415.16c-59.61,-35.06 -31.04,27.81 -45.48,-82.25l-9.84 -332.1c-10.61,59.22 -16.05,113.23 -17.65,180.68l-4.62 168.58c-24.45,120.77 29.9,-82.6 -9.82,32.44l-14.8 29.4c-47.59,-92.64 -25.07,-288.6 -28.87,-409.71l-67.29 411.83 2.4 -422.86c-56.54,109.46 -50.26,443.98 -39.69,591.75z"/>
   </g>
  </g>
 </g>
</svg>
